<?xml version="1.0" encoding="utf-8"?>
<!-- Generator: Adobe Illustrator 23.0.0, SVG Export Plug-In . SVG Version: 6.00 Build 0)  -->
<svg version="1.1" id="레이어_1" xmlns="http://www.w3.org/2000/svg" xmlns:xlink="http://www.w3.org/1999/xlink" x="0px"
	 y="0px" viewBox="0 0 580 542" style="enable-background:new 0 0 580 542;" xml:space="preserve">
<style type="text/css">
	.st0{fill:#DC6868;stroke:#DC6868;stroke-width:20;stroke-linecap:round;stroke-linejoin:round;stroke-miterlimit:10;}
	.st1{fill:none;stroke:#DC6868;stroke-width:20;stroke-linecap:round;stroke-linejoin:round;stroke-miterlimit:10;}
	.st2{enable-background:new    ;}
	.st3{fill:#DC6868;}
	.st4{display:none;fill:#DC6868;stroke:#DC6868;stroke-width:20;stroke-linecap:round;stroke-linejoin:round;stroke-miterlimit:10;}
</style>
<g>
	<g>
		<polyline class="st0" points="259.8,451.5 235,532.5 380,446.2 570,446.2 570,78.7 538,9.5 538,78.7 537,352.5 537,405.4 
			330.2,409.6 259.8,451.5 		"/>
		<polyline class="st0" points="243.2,461.9 173.3,503.5 235,532.5 243.2,461.9 		"/>
	</g>
</g>
<g>
	<g id="그룹_27" transform="translate(-34 -979.163)">
		<g>
			<polygon class="st1" points="43.8,988.1 43.8,1388.2 232,1388.2 207.3,1482.2 365.2,1388.2 572,1388.2 572,988.1 			"/>
		</g>
		<path id="다각형_5" class="st1" d="M308.4,1134.2L44.8,990.9H572L308.4,1134.2z"/>
		<g>
			<g class="st2">
				<path class="st3" d="M97.9,1164.4h29.3l47.3,97.4l-2.1,2.3v-99.7h22.9v127h-29.4l-47.1-95.9l2.1-2.3v98.1H97.9V1164.4z"/>
				<path class="st3" d="M247.3,1292.9c0,0-3.1-1.6-9.4-4.8c-6.2-3.2-10.9-7.8-14.2-13.9c-3.3-6.1-4.9-13.4-4.9-22v-10.3
					c0-9,1.6-16.6,4.7-23c3.1-6.3,7.7-11.2,13.7-14.5c6-3.3,13.2-5,21.6-5c7.9,0,14.7,2,20.4,6s10,9.7,12.9,17.2
					c2.9,7.5,4.4,16.7,4.4,27.3v6h-62.1v-16.1h40.3l-0.3-2.1c-0.6-5.2-2.3-9.3-5-12.1c-2.7-2.8-6.2-4.3-10.6-4.3
					c-5.8,0-10.3,1.7-13.4,5.1c-3.2,3.5-4.8,8.3-4.8,14.6v11.6c0,6.1,1.7,10.9,5.2,14.3c3.5,3.4,8.3,5,14.6,5c3.2,0,6.4-0.6,9.5-1.7
					c3.1-1.2,6-2.8,8.5-4.9l15.7,13.9c-4.7,4.3-10,7.6-16,10c-5.9,2.4-11.8,3.6-17.8,3.6C251.7,1292.9,247.3,1292.9,247.3,1292.9z"
					/>
				<path class="st3" d="M309.7,1200.8h23l16.1,56l19.2-56H382l19.2,56l16.1-56h23l-28,90.7h-17.8l-19.5-59.2l-19.5,59.2h-17.8
					L309.7,1200.8z"/>
				<path class="st3" d="M482.7,1292.9c0,0-2.6-0.5-7.7-1.5c-5.1-0.9-9.9-2.4-14.4-4.2c-4.5-1.8-8.4-4.1-11.9-6.7l14.8-18.4
					c4.4,2.8,9,5,13.8,6.5s9.4,2.3,13.7,2.3c5.6,0,9.9-0.6,13-1.8c3.1-1.3,4.7-3,4.7-5.2c0-2-0.6-3.6-2-4.7c-1.4-1-3-1.8-5.1-2.2
					c-2.1-0.4-5-0.8-8.8-1.2c-1-0.1-2.1-0.3-3.2-0.4s-2.2-0.3-3.3-0.4c-0.3-0.1-0.5-0.1-0.7-0.1s-0.6,0-0.7,0
					c-6.8-0.9-12.2-1.9-16.2-3.2c-4.1-1.3-7.5-3.8-10.4-7.4c-2.8-3.7-4.2-8.9-4.2-15.9c0-6.1,1.5-11.3,4.4-15.6s7.2-7.6,12.7-9.8
					c5.5-2.2,12.2-3.4,20.1-3.4c4.6,0,9.2,0.5,13.8,1.4s9,2.3,13.1,4c4.2,1.7,8.1,3.9,11.6,6.3l-14.2,17.4
					c-3.9-2.2-8.1-3.9-12.4-5.1c-4.3-1.2-8.4-1.8-12.4-1.8c-4.9,0-8.6,0.6-11.3,1.7c-2.7,1.1-4,2.7-4,4.7c0,1.6,0.7,2.7,2.1,3.6
					c1.5,0.8,3.2,1.5,5.3,1.8c2.1,0.4,5.2,0.8,9.4,1.3c0.6,0.1,1,0.1,1.6,0.2c0.6,0.1,1,0.1,1.6,0.2c0.3,0.1,0.5,0.1,0.8,0.1
					c0.3,0,0.6,0,0.8,0.1c7.1,0.8,12.8,1.8,17.2,3.1c4.4,1.3,8.2,3.9,11.3,7.7c3.1,3.9,4.7,9.5,4.7,17c0,6.3-1.6,11.6-4.6,16.1
					c-3,4.5-7.4,7.9-13.3,10.3c-5.9,2.4-12.8,3.6-21.1,3.6C485.4,1292.9,482.7,1292.9,482.7,1292.9z"/>
			</g>
		</g>
	</g>
	<polygon class="st4" points="538,9 570,46 570,461.4 364,461.4 250,532 173.3,503 331.2,409.1 538,409.1 	"/>
</g>
</svg>
