<?xml version="1.0" encoding="utf-8"?>
<!-- Generator: Adobe Illustrator 23.0.0, SVG Export Plug-In . SVG Version: 6.00 Build 0)  -->
<svg version="1.1" id="레이어_1" xmlns="http://www.w3.org/2000/svg" xmlns:xlink="http://www.w3.org/1999/xlink" x="0px"
	 y="0px" viewBox="0 0 500 500" style="enable-background:new 0 0 500 500;" xml:space="preserve">
<style type="text/css">
	.st0{fill:#FFFFFF;}
	.st1{fill:#DC6868;}
</style>
<path class="st0" d="M680.31,281.59c0,0-93.81-9.88-93.81-128.38s98.75-143.19,98.75-143.19H1021l-93.81,153.06V93.97
	c0,0-192.56-14.81-222.19,0s-39.5,108.63,14.81,123.44h177.75v79H784L675.38,488.97H547L680.31,281.59z"/>
<path class="st1" d="M142.31,281.59c0,0-93.81-9.88-93.81-128.38s98.75-143.19,98.75-143.19H483l-93.81,153.06V93.97
	c0,0-192.56-14.81-222.19,0s-39.5,108.63,14.81,123.44h177.75v79H246L137.38,488.97H9L142.31,281.59z"/>
</svg>
