<svg xmlns="http://www.w3.org/2000/svg" width="500.286" height="133.296" viewBox="0 0 500.286 133.296">
  <g id="그룹_2" data-name="그룹 2" transform="translate(584.25 -210.116)">
    <rect id="사각형_1" data-name="사각형 1" width="499.786" height="132.796" transform="translate(-584 210.366)" fill="#fff" stroke="#8e8e8f" stroke-miterlimit="10" stroke-width="0.5"/>
    <path id="패스_1" data-name="패스 1" d="M-248.573,241.288v7.092s3.431.456,3.431,4.8H-259.1s0-10.521-10.516-10.521v7.319s3.431.227,3.431,5.717v15.779h27.9V253.639S-237.14,241.288-248.573,241.288Zm3.431,23.834H-259.1V260.09h13.953Z" fill="#515152"/>
    <rect id="사각형_2" data-name="사각형 2" width="45.503" height="6.857" transform="translate(-275.096 274.675)" fill="#515152"/>
    <path id="패스_2" data-name="패스 2" d="M-266.411,286.795h28.156V304.4H-259.1v5.03h20.841v6.63h-28.156V297.77h21.269v-4.114h-21.269Z" fill="#515152"/>
    <path id="패스_3" data-name="패스 3" d="M-217.473,251.807h28.354v19.668h-20.807v4.8h20.807v7.088h-9.832v6.859h16.922v6.634h-43.219V290h18.979v-6.632h-10.977v-19.9h21.038v-5.028h-21.038Z" fill="#515152"/>
    <path id="패스_4" data-name="패스 4" d="M-169.452,255.238v7.088h21.036v19.206h8.462V255.238Z" fill="#515152"/>
    <rect id="사각형_3" data-name="사각형 3" width="43.902" height="7.321" transform="translate(-176.539 288.394)" fill="#515152"/>
    <g id="그룹_1" data-name="그룹 1">
      <path id="패스_5" data-name="패스 5" d="M-505.93,254.457v23.193l-15.888-23.193h-17.173v45.972h17.119v-23.2l15.889,23.2h17.167V254.457Z" fill="#459d25"/>
      <path id="패스_6" data-name="패스 6" d="M-305.163,283.231c6.085-1.695,10-6.08,10-13.131,0-11.84-9.395-15.643-21.784-15.643h-21.385v45.972h17.116V286.071l10.218,14.358h19.671Zm-8.409-9.365a7.908,7.908,0,0,1-4.509,1.208h-3.674v-9.051h3.608a7.906,7.906,0,0,1,4.649,1.233,4.2,4.2,0,0,1,1.388,3.375A3.905,3.905,0,0,1-313.572,273.866Z" fill="#459d25"/>
      <path id="패스_7" data-name="패스 7" d="M-380.038,254.457h34.7v11.968h-17.748v5.412h16.35v11.3h-16.35v5.318h18.3v11.976h-35.246Z" fill="#459d25"/>
      <path id="패스_8" data-name="패스 8" d="M-447.62,254.457h-19.52l-18.008,45.972h19.038l1.658-6h14.144l1.658,6h19.032ZM-461.645,283.8l4.032-15.162h.466l4.032,15.162Z" fill="#459d25"/>
      <path id="패스_9" data-name="패스 9" d="M-402.37,254.457l-8.433,27.72h-.476l-8.433-27.72h-18.664l19.26,45.972h16.154l19.254-45.972Z" fill="#459d25"/>
    </g>
  </g>
</svg>
