<svg id="레이어_1" data-name="레이어 1" xmlns="http://www.w3.org/2000/svg" viewBox="0 0 138.47 22.68"><defs><style>.cls-1{fill:#a7a7a7;}</style></defs><title>softlabs_logo_gw</title><path class="cls-1" d="M29,14.21A1.82,1.82,0,0,0,30.07,14a.6.6,0,0,0,.29-.48.84.84,0,0,0-.05-.29.9.9,0,0,0-.18-.23,2.08,2.08,0,0,0-.33-.22l-.56-.26-.71-.36a2.46,2.46,0,0,1-.59-.46,2.08,2.08,0,0,1-.4-.61,2.23,2.23,0,0,1-.14-.82,2.33,2.33,0,0,1,.91-1.95A4.18,4.18,0,0,1,31,7.58a5.4,5.4,0,0,1,1.46.18,5.15,5.15,0,0,1,1,.4l-.78,1.69a4.85,4.85,0,0,0-.82-.32,3.52,3.52,0,0,0-1-.15l-.42,0a1.64,1.64,0,0,0-.38.1.62.62,0,0,0-.28.22.57.57,0,0,0-.11.36.5.5,0,0,0,.24.46c.16.1.38.22.66.37s.73.37,1,.53a2.82,2.82,0,0,1,.63.52,1.61,1.61,0,0,1,.34.63,2.86,2.86,0,0,1,.11.82,2.46,2.46,0,0,1-.2,1,2.27,2.27,0,0,1-.65.84,3.46,3.46,0,0,1-1.13.6A5.34,5.34,0,0,1,29,16,7,7,0,0,1,27.94,16a5.67,5.67,0,0,1-.85-.19,4.24,4.24,0,0,1-.62-.24l-.39-.19.78-1.75a8,8,0,0,0,.81.39A3.52,3.52,0,0,0,29,14.21Z"/><path class="cls-1" d="M45,16a3.59,3.59,0,0,1-1.41-.25,2.57,2.57,0,0,1-1-.68,3,3,0,0,1-.59-1,4.33,4.33,0,0,1-.2-1.34,5.84,5.84,0,0,1,.3-1.83A5.24,5.24,0,0,1,43,9.24,4.59,4.59,0,0,1,44.46,8a3.9,3.9,0,0,1,1.92-.46,3.77,3.77,0,0,1,1.4.24,2.53,2.53,0,0,1,1,.69,2.84,2.84,0,0,1,.59,1.05,4.27,4.27,0,0,1,.2,1.33,6.13,6.13,0,0,1-.29,1.83,5.29,5.29,0,0,1-.86,1.65A4.44,4.44,0,0,1,47,15.57,4,4,0,0,1,45,16ZM46.17,9.5a1.46,1.46,0,0,0-.89.29,2.56,2.56,0,0,0-.64.74,3.72,3.72,0,0,0-.39,1,4.12,4.12,0,0,0-.13,1,2.43,2.43,0,0,0,.24,1.19,1,1,0,0,0,.89.42,1.4,1.4,0,0,0,.89-.29,2.53,2.53,0,0,0,.64-.73,3.79,3.79,0,0,0,.39-1,4.5,4.5,0,0,0,.13-1,2.33,2.33,0,0,0-.25-1.2A.92.92,0,0,0,46.17,9.5Z"/><path class="cls-1" d="M64.05,4a4.28,4.28,0,0,1,1.2.15,4.64,4.64,0,0,1,.77.27l-.76,1.78a2.4,2.4,0,0,0-.64-.2A3.23,3.23,0,0,0,64,5.9a1.67,1.67,0,0,0-1.25.42,2.33,2.33,0,0,0-.55,1.07l-.09.4h2.68L64.3,9.65H61.62l-.93,3.9A16.13,16.13,0,0,1,59.56,17a5,5,0,0,1-1.34,1.76l-2-.29a4.53,4.53,0,0,0,.73-.9,10.1,10.1,0,0,0,.6-1.13A11.12,11.12,0,0,0,58,15.18c.13-.42.23-.8.31-1.16l1.59-6.66a4.66,4.66,0,0,1,1.38-2.5A4,4,0,0,1,64.05,4Z"/><path class="cls-1" d="M74.31,5.79l2.37-.37L76.1,7.79h2.54l-.46,1.86H75.66L75,12.46a3.57,3.57,0,0,0-.12.66,1.1,1.1,0,0,0,.08.53.66.66,0,0,0,.34.34,1.54,1.54,0,0,0,.67.12,4.08,4.08,0,0,0,.71-.06,5,5,0,0,0,.7-.2l.17,1.75c-.31.11-.64.2-1,.29a5.79,5.79,0,0,1-1.26.12,3.48,3.48,0,0,1-1.64-.32,1.73,1.73,0,0,1-.82-.85,2.64,2.64,0,0,1-.22-1.25,8.29,8.29,0,0,1,.22-1.48Z"/><path class="cls-1" d="M89.45,16a4.13,4.13,0,0,1-1.7-.29,1.75,1.75,0,0,1-.89-.77,2.16,2.16,0,0,1-.26-1.12,6.12,6.12,0,0,1,.18-1.35l1.94-8.11L91.08,4,89,12.77a3.32,3.32,0,0,0-.07.5.78.78,0,0,0,.09.41.61.61,0,0,0,.31.28,1.78,1.78,0,0,0,.62.14Z"/><path class="cls-1" d="M105.9,12.36a4.7,4.7,0,0,0-.12,1.75,6,6,0,0,0,.35,1.56l-2,.29c-.06-.12-.11-.24-.16-.35s-.11-.24-.16-.38a4.1,4.1,0,0,1-.94.58,3.18,3.18,0,0,1-2.47,0,2.53,2.53,0,0,1-.89-.72A3,3,0,0,1,99,14a5.57,5.57,0,0,1,.22-3.28,5.06,5.06,0,0,1,1-1.62A4.63,4.63,0,0,1,101.8,8a4.74,4.74,0,0,1,2-.4h.48c.23,0,.49,0,.79.07a9.44,9.44,0,0,1,.93.18,5.15,5.15,0,0,1,.93.33Zm-1.59-2.81L104,9.5h-.39a1.83,1.83,0,0,0-1,.26,2.83,2.83,0,0,0-.79.68,3.11,3.11,0,0,0-.52,1,3.33,3.33,0,0,0-.19,1.14,2.36,2.36,0,0,0,.24,1.16.93.93,0,0,0,.9.43,1.47,1.47,0,0,0,.64-.14,2.24,2.24,0,0,0,.6-.46c0-.25,0-.52.1-.8s.09-.53.14-.77Z"/><path class="cls-1" d="M120.31,7.62a2.9,2.9,0,0,1,1.27.26,2.59,2.59,0,0,1,.89.71,2.94,2.94,0,0,1,.52,1,4.85,4.85,0,0,1,.16,1.29,5.34,5.34,0,0,1-.38,2,5.07,5.07,0,0,1-1.07,1.63,4.78,4.78,0,0,1-1.58,1.1,4.89,4.89,0,0,1-2,.41h-.48a6.2,6.2,0,0,1-.79-.07c-.29,0-.61-.1-.94-.18a4.39,4.39,0,0,1-.94-.34l2.65-11.1L120,4l-.94,3.94a3.39,3.39,0,0,1,.61-.21A2.69,2.69,0,0,1,120.31,7.62Zm-2,6.54a2.11,2.11,0,0,0,1-.26,2.66,2.66,0,0,0,.81-.69,3.66,3.66,0,0,0,.55-1,3.43,3.43,0,0,0,.19-1.15,2.27,2.27,0,0,0-.24-1.14.94.94,0,0,0-.9-.41,2.72,2.72,0,0,0-.56.07,1.42,1.42,0,0,0-.62.32l-1,4.19.16,0,.14,0h.46Z"/><path class="cls-1" d="M134,14.21a1.82,1.82,0,0,0,1.07-.23.58.58,0,0,0,.29-.48.84.84,0,0,0-.05-.29.73.73,0,0,0-.18-.23,2.08,2.08,0,0,0-.33-.22l-.55-.26-.72-.36a2.67,2.67,0,0,1-.59-.46,1.87,1.87,0,0,1-.39-.61,2,2,0,0,1-.15-.82,2.33,2.33,0,0,1,.91-1.95A4.18,4.18,0,0,1,136,7.58a5.35,5.35,0,0,1,1.46.18,5.15,5.15,0,0,1,1,.4l-.78,1.69a4.53,4.53,0,0,0-.82-.32,3.5,3.5,0,0,0-1-.15l-.42,0a1.41,1.41,0,0,0-.38.1.64.64,0,0,0-.29.22.57.57,0,0,0-.1.36.49.49,0,0,0,.23.46c.16.1.38.22.67.37s.72.37,1,.53a2.61,2.61,0,0,1,.63.52,1.63,1.63,0,0,1,.35.63,2.88,2.88,0,0,1,.1.82,2.3,2.3,0,0,1-.2,1,2.27,2.27,0,0,1-.65.84,3.36,3.36,0,0,1-1.13.6A5.34,5.34,0,0,1,134,16,7,7,0,0,1,133,16a5.67,5.67,0,0,1-.85-.19,3.69,3.69,0,0,1-.61-.24l-.39-.19.78-1.75a6.72,6.72,0,0,0,.8.39A3.52,3.52,0,0,0,134,14.21Z"/><polygon class="cls-1" points="15.58 4.58 11.66 6.97 7.81 4.58 4 6.97 11.66 11.44 11.66 15.82 0 9.22 0 4.64 7.81 0 15.58 4.58"/><polygon class="cls-1" points="15.58 13.71 7.81 18.13 0 13.71 0 18.13 7.81 22.68 15.58 18.2 15.58 13.71"/></svg>