<?xml version="1.0" encoding="utf-8"?>
<!-- Generator: Adobe Illustrator 23.0.0, SVG Export Plug-In . SVG Version: 6.00 Build 0)  -->
<svg version="1.1" id="레이어_1" xmlns="http://www.w3.org/2000/svg" xmlns:xlink="http://www.w3.org/1999/xlink" x="0px"
	 y="0px" viewBox="0 0 574 574" style="enable-background:new 0 0 574 574;" xml:space="preserve">
<style type="text/css">
	.st0{fill:none;stroke:#F9BD00;stroke-width:20;stroke-miterlimit:10;}
	.st1{fill:#F9BD00;stroke:#F9BD00;stroke-miterlimit:10;}
	.st2{fill:#F9BD00;}
</style>
<g>
	<g id="그룹_42" transform="translate(-32.776 -925.331)">
		<g>
			<path class="st0" d="M306.7,937.7c-138.3,0-250.4,104.2-250.4,232.7c0,75.9,39.1,143.3,99.7,185.8v102.1c0,1.5,0.8,2.7,2.1,3.4
				c0.6,0.3,1.2,0.5,1.8,0.5c0.8,0,1.6-0.3,2.2-0.7l89.6-64c17.7,3.6,36.2,5.7,55,5.7c138.3,0,250.4-104.2,250.4-232.7
				C557.2,1041.9,445,937.7,306.7,937.7z"/>
			<g>
				<path class="st1" d="M420.9,1141.2c-7.3-7.9-18-11.8-31.8-11.8c-7.7,0-14.7,1.7-20.8,5c-4.6,2.5-8.6,5.5-11.9,8.8v-64.1h-30.1
					V1249h29.9v-63.4c0-5.3,0.7-10.1,2.2-14.2c1.4-4.1,3.3-7.7,5.7-10.4c2.4-2.7,5.3-5,8.4-6.5c3.2-1.5,6.6-2.3,10.2-2.3
					c6.2,0,11,1.7,14.3,5s5,9.5,5,18.3v73.5h29.9v-72.2C431.8,1161,428.1,1149,420.9,1141.2z"/>
				<path class="st1" d="M224.2,1114.6c20.9,0,39,13.6,46,32.7h32.2c-8.1-37.1-40.1-64.8-78.3-64.8c-44.3,0-80.4,37.3-80.4,83.3
					s35.9,83.3,80.4,83.3c38.2,0,70.2-27.7,78.3-64.8h-32.2c-7.2,19.2-25.1,32.7-46,32.7c-27.2,0-49.4-22.9-49.4-51.3
					C174.8,1137.5,196.9,1114.6,224.2,1114.6z"/>
			</g>
		</g>
	</g>
</g>
<g>
	<path class="st2" d="M473,91.1c0,0,144.2,134.6,87.3,287.2c0,0-58.4,168.6-267.6,136l-75.9,54.2l-6.6,4.7c0,0,1.5,2-5.6-0.4
		L122.2,545l11.4-24.4l84-59c0,0,156.5,38.4,255.9-91.1C473.4,370.5,565.8,254.6,473,91.1z"/>
</g>
</svg>
