<?xml version="1.0" encoding="utf-8"?>
<!-- Generator: Adobe Illustrator 23.0.0, SVG Export Plug-In . SVG Version: 6.00 Build 0)  -->
<svg version="1.1" id="레이어_1" xmlns="http://www.w3.org/2000/svg" xmlns:xlink="http://www.w3.org/1999/xlink" x="0px"
	 y="0px" viewBox="0 0 580 534" style="enable-background:new 0 0 580 534;" xml:space="preserve">
<style type="text/css">
	.st0{display:none;fill:#DC6868;}
	.st1{fill:#DC6868;stroke:#FFFFFF;stroke-width:15;stroke-linecap:round;}
	.st2{fill:#00C839;}
</style>
<path id="사각형_125" class="st0" d="M35.6-0.5h509.6c19.4,0,35.1,15.7,35.1,35.1v351.5c0,19.4-15.7,35.1-35.1,35.1H35.6
	c-19.4,0-35.1-15.7-35.1-35.1V34.6C0.4,15.2,16.2-0.5,35.6-0.5z"/>
<path id="다각형_6" class="st0" d="M183.1,535l65.3-222l130,98L183.1,535z"/>
<path id="선_35_2_" class="st1" d="M478.2,85.7"/>
<path id="선_35_1_" class="st1" d="M209.9,85.7"/>
<path id="선_36_2_" class="st1" d="M478.2,166.2"/>
<path id="선_36_1_" class="st1" d="M344,166.2"/>
<path id="선_37_2_" class="st1" d="M478.2,327.2"/>
<path id="선_37_1_" class="st1" d="M236.7,327.2"/>
<path id="선_38_2_" class="st1" d="M478.2,246.7"/>
<path id="선_38_1_" class="st1" d="M290.4,246.7"/>
<g>
	<path class="st2" d="M537.8,68.5L537.8,68.5l-52.7-48.8C473.6,7.3,457.3-0.5,439.2-0.5H87.5c-34.6,0-62.8,28.2-62.8,62.8v387.8
		c0,10.8,2,18.8,6,24.5c1.4,2,3.1,3.7,5,5.1l50.5,46.5c0.8,0.8,1.6,1.6,2.5,2.3l0.4,0.4l0.1-0.1c0.8,0.6,1.6,1.3,2.5,1.7
		c3,1.5,6.3,2.3,9.9,2.3c9.4,0,17.6-5.4,19.1-6.5l59-60.4c12.5-15.1,46.2-18.5,58.1-18.5h254.7c34.6,0,62.8-28.2,62.8-62.8v-273
		C555.3,94.8,548.6,79.7,537.8,68.5z M481,69.7v265.8c0,23.1-18.8,41.9-41.8,41.9H184.5c-5.4,0-53.3,0.7-73.7,25.5l-11.8,12
		l-21,21.6l-23.4,24c-1.8,1-4.6,2.3-6.4,2.3h-0.3c0,0-2.4-2.3-2.4-12.7V62.3c0-23.1,18.8-41.9,41.9-41.9h351.7
		c18.3,0,33.7,11.9,39.4,28.3c1.5,4.3,2.4,8.8,2.4,13.6v7.4H481z"/>
	<path class="st2" d="M162.9,130.8c-17.3,0-31.3,14-31.3,31.3v65.7c0,17.3,14,31.3,31.3,31.3s31.3-14,31.3-31.3v-65.7
		C194.2,144.8,180.2,130.8,162.9,130.8z"/>
	<path class="st2" d="M357.9,130.8c-17.3,0-31.3,14-31.3,31.3v65.7c0,17.3,14,31.3,31.3,31.3s31.3-14,31.3-31.3v-65.7
		C389.1,144.8,375.1,130.8,357.9,130.8z"/>
</g>
</svg>
