<?xml version="1.0" standalone="no"?>
<!DOCTYPE svg PUBLIC "-//W3C//DTD SVG 20010904//EN"
 "http://www.w3.org/TR/2001/REC-SVG-20010904/DTD/svg10.dtd">
<svg version="1.0" xmlns="http://www.w3.org/2000/svg"
 width="240.000000pt" height="240.000000pt" viewBox="0 0 240.000000 240.000000" 
 preserveAspectRatio="xMidYMid meet" fill='none'>

<g transform="translate(0.000000,240.000000) scale(0.100000,-0.100000)"
fill="#dc6868" stroke="none">
<path d="M1151 2380 c-63 -15 -116 -69 -131 -136 -5 -21 -10 -224 -10 -451 l0
-412 -432 -3 c-469 -3 -463 -2 -514 -60 -34 -37 -46 -68 -46 -118 0 -51 18
-94 54 -126 54 -49 47 -49 506 -52 l432 -3 0 -412 c0 -227 5 -430 10 -451 19
-85 84 -136 170 -136 89 0 154 54 171 141 4 24 8 227 9 452 l0 407 418 0 c229
0 435 5 456 10 85 19 136 84 136 170 0 86 -51 151 -136 170 -21 5 -227 10
-456 10 l-417 0 -3 438 c-3 463 -2 456 -52 510 -40 45 -104 65 -165 52z" />
</g>
</svg>
